<svg width="102" height="89" viewBox="0 0 102 89" fill="none" xmlns="http://www.w3.org/2000/svg">
<path d="M5.5094 10.425C8.39695 10.425 10.7378 8.09121 10.7378 5.21245C10.7378 2.33368 8.39695 0 5.5094 0C2.62184 0 0.281006 2.33368 0.281006 5.21245C0.281006 8.09121 2.62184 10.425 5.5094 10.425Z" fill="url(#paint0_linear)"/>
<path d="M35.7905 10.425C38.6781 10.425 41.0189 8.09121 41.0189 5.21245C41.0189 2.33368 38.6781 0 35.7905 0C32.903 0 30.5621 2.33368 30.5621 5.21245C30.5621 8.09121 32.903 10.425 35.7905 10.425Z" fill="url(#paint1_linear)"/>
<path d="M66.0717 10.425C68.9592 10.425 71.3 8.09121 71.3 5.21245C71.3 2.33368 68.9592 0 66.0717 0C63.1841 0 60.8433 2.33368 60.8433 5.21245C60.8433 8.09121 63.1841 10.425 66.0717 10.425Z" fill="url(#paint2_linear)"/>
<path d="M96.3526 10.425C99.2402 10.425 101.581 8.09121 101.581 5.21245C101.581 2.33368 99.2402 0 96.3526 0C93.4651 0 91.1243 2.33368 91.1243 5.21245C91.1243 8.09121 93.4651 10.425 96.3526 10.425Z" fill="url(#paint3_linear)"/>
<path d="M5.5094 36.5958C8.39695 36.5958 10.7378 34.2621 10.7378 31.3833C10.7378 28.5046 8.39695 26.1709 5.5094 26.1709C2.62184 26.1709 0.281006 28.5046 0.281006 31.3833C0.281006 34.2621 2.62184 36.5958 5.5094 36.5958Z" fill="url(#paint4_linear)"/>
<path d="M35.7905 36.5958C38.6781 36.5958 41.0189 34.2621 41.0189 31.3833C41.0189 28.5046 38.6781 26.1709 35.7905 26.1709C32.903 26.1709 30.5621 28.5046 30.5621 31.3833C30.5621 34.2621 32.903 36.5958 35.7905 36.5958Z" fill="url(#paint5_linear)"/>
<path d="M66.0717 36.5958C68.9592 36.5958 71.3 34.2621 71.3 31.3833C71.3 28.5046 68.9592 26.1709 66.0717 26.1709C63.1841 26.1709 60.8433 28.5046 60.8433 31.3833C60.8433 34.2621 63.1841 36.5958 66.0717 36.5958Z" fill="url(#paint6_linear)"/>
<path d="M96.3526 36.5958C99.2402 36.5958 101.581 34.2621 101.581 31.3833C101.581 28.5046 99.2402 26.1709 96.3526 26.1709C93.4651 26.1709 91.1243 28.5046 91.1243 31.3833C91.1243 34.2621 93.4651 36.5958 96.3526 36.5958Z" fill="url(#paint7_linear)"/>
<path d="M5.5094 62.7124C8.39695 62.7124 10.7378 60.3787 10.7378 57.5C10.7378 54.6212 8.39695 52.2875 5.5094 52.2875C2.62184 52.2875 0.281006 54.6212 0.281006 57.5C0.281006 60.3787 2.62184 62.7124 5.5094 62.7124Z" fill="url(#paint8_linear)"/>
<path d="M35.7905 62.7124C38.6781 62.7124 41.0189 60.3787 41.0189 57.5C41.0189 54.6212 38.6781 52.2875 35.7905 52.2875C32.903 52.2875 30.5621 54.6212 30.5621 57.5C30.5621 60.3787 32.903 62.7124 35.7905 62.7124Z" fill="url(#paint9_linear)"/>
<path d="M66.0717 62.7124C68.9592 62.7124 71.3 60.3787 71.3 57.5C71.3 54.6212 68.9592 52.2875 66.0717 52.2875C63.1841 52.2875 60.8433 54.6212 60.8433 57.5C60.8433 60.3787 63.1841 62.7124 66.0717 62.7124Z" fill="url(#paint10_linear)"/>
<path d="M96.3526 62.7124C99.2402 62.7124 101.581 60.3787 101.581 57.5C101.581 54.6212 99.2402 52.2875 96.3526 52.2875C93.4651 52.2875 91.1243 54.6212 91.1243 57.5C91.1243 60.3787 93.4651 62.7124 96.3526 62.7124Z" fill="url(#paint11_linear)"/>
<path d="M5.5094 88.8833C8.39695 88.8833 10.7378 86.5496 10.7378 83.6708C10.7378 80.7921 8.39695 78.4584 5.5094 78.4584C2.62184 78.4584 0.281006 80.7921 0.281006 83.6708C0.281006 86.5496 2.62184 88.8833 5.5094 88.8833Z" fill="url(#paint12_linear)"/>
<path d="M35.7905 88.8833C38.6781 88.8833 41.0189 86.5496 41.0189 83.6708C41.0189 80.7921 38.6781 78.4584 35.7905 78.4584C32.903 78.4584 30.5621 80.7921 30.5621 83.6708C30.5621 86.5496 32.903 88.8833 35.7905 88.8833Z" fill="url(#paint13_linear)"/>
<path d="M66.0717 88.8833C68.9592 88.8833 71.3 86.5496 71.3 83.6708C71.3 80.7921 68.9592 78.4584 66.0717 78.4584C63.1841 78.4584 60.8433 80.7921 60.8433 83.6708C60.8433 86.5496 63.1841 88.8833 66.0717 88.8833Z" fill="url(#paint14_linear)"/>
<path d="M96.3526 88.8833C99.2402 88.8833 101.581 86.5496 101.581 83.6708C101.581 80.7921 99.2402 78.4584 96.3526 78.4584C93.4651 78.4584 91.1243 80.7921 91.1243 83.6708C91.1243 86.5496 93.4651 88.8833 96.3526 88.8833Z" fill="url(#paint15_linear)"/>
<defs>
<linearGradient id="paint0_linear" x1="55.2771" y1="131.134" x2="-16.1246" y2="-50.67" gradientUnits="userSpaceOnUse">
<stop stop-color="white"/>
<stop offset="1" stop-color="white"/>
</linearGradient>
<linearGradient id="paint1_linear" x1="85.5582" y1="131.134" x2="14.1566" y2="-50.67" gradientUnits="userSpaceOnUse">
<stop stop-color="white"/>
<stop offset="1" stop-color="white"/>
</linearGradient>
<linearGradient id="paint2_linear" x1="115.839" y1="131.134" x2="44.4377" y2="-50.67" gradientUnits="userSpaceOnUse">
<stop stop-color="white"/>
<stop offset="1" stop-color="white"/>
</linearGradient>
<linearGradient id="paint3_linear" x1="146.12" y1="131.134" x2="74.7187" y2="-50.67" gradientUnits="userSpaceOnUse">
<stop stop-color="white"/>
<stop offset="1" stop-color="white"/>
</linearGradient>
<linearGradient id="paint4_linear" x1="55.2771" y1="157.303" x2="-16.1233" y2="-24.4991" gradientUnits="userSpaceOnUse">
<stop stop-color="white"/>
<stop offset="1" stop-color="white"/>
</linearGradient>
<linearGradient id="paint5_linear" x1="85.5582" y1="157.303" x2="14.1578" y2="-24.4991" gradientUnits="userSpaceOnUse">
<stop stop-color="white"/>
<stop offset="1" stop-color="white"/>
</linearGradient>
<linearGradient id="paint6_linear" x1="115.839" y1="157.303" x2="44.4389" y2="-24.4991" gradientUnits="userSpaceOnUse">
<stop stop-color="white"/>
<stop offset="1" stop-color="white"/>
</linearGradient>
<linearGradient id="paint7_linear" x1="146.12" y1="157.303" x2="74.7199" y2="-24.4991" gradientUnits="userSpaceOnUse">
<stop stop-color="white"/>
<stop offset="1" stop-color="white"/>
</linearGradient>
<linearGradient id="paint8_linear" x1="55.2771" y1="183.421" x2="-16.1246" y2="1.61743" gradientUnits="userSpaceOnUse">
<stop stop-color="white"/>
<stop offset="1" stop-color="white"/>
</linearGradient>
<linearGradient id="paint9_linear" x1="85.5582" y1="183.421" x2="14.1566" y2="1.61743" gradientUnits="userSpaceOnUse">
<stop stop-color="white"/>
<stop offset="1" stop-color="white"/>
</linearGradient>
<linearGradient id="paint10_linear" x1="115.839" y1="183.421" x2="44.4377" y2="1.61743" gradientUnits="userSpaceOnUse">
<stop stop-color="white"/>
<stop offset="1" stop-color="white"/>
</linearGradient>
<linearGradient id="paint11_linear" x1="146.12" y1="183.421" x2="74.7187" y2="1.61743" gradientUnits="userSpaceOnUse">
<stop stop-color="white"/>
<stop offset="1" stop-color="white"/>
</linearGradient>
<linearGradient id="paint12_linear" x1="55.2771" y1="209.592" x2="-16.1246" y2="27.7883" gradientUnits="userSpaceOnUse">
<stop stop-color="white"/>
<stop offset="1" stop-color="white"/>
</linearGradient>
<linearGradient id="paint13_linear" x1="85.5582" y1="209.592" x2="14.1566" y2="27.7883" gradientUnits="userSpaceOnUse">
<stop stop-color="white"/>
<stop offset="1" stop-color="white"/>
</linearGradient>
<linearGradient id="paint14_linear" x1="115.839" y1="209.592" x2="44.4377" y2="27.7883" gradientUnits="userSpaceOnUse">
<stop stop-color="white"/>
<stop offset="1" stop-color="white"/>
</linearGradient>
<linearGradient id="paint15_linear" x1="146.12" y1="209.592" x2="74.7187" y2="27.7883" gradientUnits="userSpaceOnUse">
<stop stop-color="white"/>
<stop offset="1" stop-color="white"/>
</linearGradient>
</defs>
</svg>
